<svg width="20" height="20" viewBox="0 0 20 20" fill="none" xmlns="http://www.w3.org/2000/svg">
<path d="M5.4551 17.5498L4.5551 8.54975C4.52566 8.25541 4.75681 8 5.05262 8H14.9476C15.2434 8 15.4746 8.25541 15.4451 8.54975L14.5451 17.5498C14.5196 17.8054 14.3045 18 14.0476 18H5.95262C5.69574 18 5.48066 17.8054 5.4551 17.5498Z" fill="#CCCCCC"/>
<path d="M17.0001 6H3.00012C2.72398 6 2.50012 5.77614 2.50012 5.5V4.5C2.50012 4.22386 2.72398 4 3.00012 4H5.34873C5.44745 4 5.54395 3.97078 5.62608 3.91603L8.37416 2.08397C8.45629 2.02922 8.5528 2 8.65151 2H11.3487C11.4474 2 11.544 2.02922 11.6261 2.08397L14.3742 3.91603C14.4563 3.97078 14.5528 4 14.6515 4H17.0001C17.2763 4 17.5001 4.22386 17.5001 4.5V5.5C17.5001 5.77614 17.2763 6 17.0001 6Z" fill="#CCCCCC"/>
</svg>
