<svg width="396" height="132" viewBox="0 0 396 132" fill="none" xmlns="http://www.w3.org/2000/svg">
<rect width="396" height="132" fill="white"/>
<rect x="158" y="26" width="80" height="80" rx="40" fill="#05AE71" fill-opacity="0.15"/>
<path fill-rule="evenodd" clip-rule="evenodd" d="M178.8 66C178.8 55.4016 187.402 46.8 198 46.8C208.598 46.8 217.2 55.4016 217.2 66C217.2 76.5985 208.598 85.2001 198 85.2001C187.402 85.2001 178.8 76.5985 178.8 66ZM205.409 58.9903C204.968 58.6817 204.356 58.7557 204.006 59.16L195.896 68.5311L191.715 64.7738C191.316 64.4157 190.701 64.4157 190.302 64.7738L188.733 66.1842C188.289 66.5831 188.289 67.264 188.733 67.6629L194.595 72.9315C194.787 73.1041 195.04 73.2 195.302 73.2H196.907C197.214 73.2 197.506 73.0683 197.703 72.8401L207.357 61.6856C207.745 61.2368 207.658 60.5625 207.168 60.2199L205.409 58.9903Z" fill="#05AE71"/>
</svg>
